<svg width="18" height="19" viewBox="0 0 18 19" fill="none" xmlns="http://www.w3.org/2000/svg">
<path d="M12.6169 6.95077C12.7294 6.95077 12.8214 6.99111 12.8929 7.0718C12.9643 7.15251 13 7.24896 13 7.36114C13 7.38575 12.9551 7.47536 12.8654 7.62997L9.21568 11.2528C9.16666 11.3087 9.10549 11.3546 9.03216 11.3905C8.95881 11.4264 8.88228 11.4443 8.80256 11.4443C8.72284 11.4443 8.6463 11.4264 8.57295 11.3905C8.49962 11.3546 8.43499 11.3087 8.37907 11.2528L4.7395 7.62978C4.70375 7.59401 4.67241 7.55215 4.64549 7.5042C4.61857 7.45624 4.60511 7.40684 4.60511 7.35597C4.60511 7.24045 4.64082 7.14403 4.71225 7.06672C4.7837 6.98942 4.87568 6.95077 4.98819 6.95077L12.6169 6.95077Z" fill="#000000"/>
</svg>
