<svg width="18" height="18" viewBox="0 0 18 18" fill="none" xmlns="http://www.w3.org/2000/svg">
<path d="M12.0881 6.61092C12.2006 6.61092 12.2926 6.65127 12.364 6.73196C12.4355 6.81267 12.4712 6.90911 12.4712 7.0213C12.4712 7.0459 12.4263 7.13551 12.3366 7.29012L8.68687 10.913C8.63785 10.9689 8.57668 11.0148 8.50335 11.0507C8.43 11.0865 8.35347 11.1045 8.27375 11.1045C8.19403 11.1045 8.11749 11.0865 8.04414 11.0507C7.97081 11.0148 7.90619 10.9689 7.85026 10.9129L4.21069 7.28994C4.17494 7.25417 4.1436 7.21231 4.11668 7.16435C4.08976 7.1164 4.0763 7.06699 4.0763 7.01613C4.0763 6.90061 4.11202 6.80419 4.18345 6.72687C4.25489 6.64957 4.34687 6.61093 4.45938 6.61093L12.0881 6.61092Z" fill="white"/>
</svg>
