<svg width="21" height="21" viewBox="0 0 21 21" fill="none" xmlns="http://www.w3.org/2000/svg">
<path d="M10.2041 17.9255L10.1987 17.9226L10.1798 17.9124C10.1637 17.9037 10.1408 17.8911 10.1113 17.8746C10.0524 17.8418 9.9677 17.7937 9.8608 17.7308C9.64708 17.605 9.34431 17.4199 8.98212 17.1791C8.25895 16.6984 7.29268 15.9917 6.32383 15.0886C4.40651 13.3013 2.375 10.6459 2.375 7.375C2.375 4.93495 4.428 3 6.90625 3C8.36365 3 9.6686 3.66591 10.5 4.70966C11.3314 3.66591 12.6363 3 14.0938 3C16.572 3 18.625 4.93495 18.625 7.375C18.625 10.6459 16.5935 13.3013 14.6762 15.0886C13.7073 15.9917 12.741 16.6984 12.0179 17.1791C11.6557 17.4199 11.3529 17.605 11.1392 17.7308C11.0323 17.7937 10.9476 17.8418 10.8887 17.8746C10.8592 17.8911 10.8363 17.9037 10.8202 17.9124L10.8013 17.9226L10.7959 17.9255L10.7936 17.9268C10.6103 18.0241 10.3897 18.0241 10.2064 17.9268L10.2041 17.9255Z" fill="#FF0080"/>
</svg>
