<svg width="40" height="40" viewBox="0 0 40 40" fill="none" xmlns="http://www.w3.org/2000/svg">
<rect width="40" height="40" rx="20" fill="white" fill-opacity="0.3"/>
<path d="M16.244 25.4165C15.8902 25.4165 15.5608 25.2194 15.4313 24.8901C15.1529 24.1821 15 23.4109 15 22.604C15 21.1464 15.4989 19.8054 16.3354 18.7424C16.4611 18.5826 16.6455 18.4849 16.8351 18.4115C17.2291 18.2589 17.5771 17.9829 17.8451 17.6412C18.4894 16.8197 19.3014 16.136 20.2296 15.6417C20.8314 15.3212 21.3536 14.8451 21.6068 14.212C21.784 13.7691 21.875 13.2964 21.875 12.8193V12.2915C21.875 11.9463 22.1548 11.6665 22.5 11.6665C23.5355 11.6665 24.375 12.506 24.375 13.5415C24.375 14.5012 24.1587 15.4104 23.7722 16.2229C23.5509 16.6882 23.8614 17.2915 24.3766 17.2915H26.9814C27.837 17.2915 28.6028 17.8698 28.6933 18.7206C28.7308 19.0724 28.75 19.4297 28.75 19.7915C28.75 22.1645 27.9234 24.3445 26.5425 26.0592C26.2195 26.4603 25.7202 26.6665 25.2052 26.6665H21.8585C21.4555 26.6665 21.0551 26.6015 20.6727 26.4741L18.0773 25.6089C17.6949 25.4815 17.2945 25.4165 16.8915 25.4165H16.244Z" fill="white"/>
<path d="M11.9429 18.9391C11.4957 20.0739 11.25 21.3103 11.25 22.604C11.25 23.6207 11.4017 24.602 11.6838 25.5265C11.8999 26.2348 12.5868 26.6665 13.3274 26.6665H14.0839C14.4552 26.6665 14.6845 26.2513 14.5202 25.9183C14.0271 24.9189 13.75 23.7938 13.75 22.604C13.75 21.1805 14.1466 19.8497 14.8353 18.7159C15.0394 18.3798 14.8117 17.9165 14.4184 17.9165H13.5411C12.8478 17.9165 12.1971 18.294 11.9429 18.9391Z" fill="white"/>
</svg>
