<svg width="16" height="16" viewBox="0 0 16 16" fill="none" xmlns="http://www.w3.org/2000/svg">
<path d="M9.51531 12.3579L8.83069 14.0938C8.8059 14.1613 8.76039 14.2182 8.69416 14.2643C8.62791 14.3105 8.55761 14.3335 8.48326 14.3335C8.34822 14.3335 8.24246 14.2773 8.16596 14.1649C8.08947 14.0526 8.07815 13.9344 8.13199 13.8105L10.8179 6.96432C10.8495 6.87201 10.9042 6.79936 10.982 6.74637C11.0598 6.69338 11.1448 6.66689 11.2371 6.66689H11.5986C11.6867 6.66689 11.7706 6.69338 11.8506 6.74637C11.9305 6.79936 11.9862 6.87201 12.0179 6.96432L14.7038 13.8041C14.7576 13.9323 14.7463 14.0526 14.6698 14.1649C14.5933 14.2773 14.4875 14.3335 14.3525 14.3335C14.267 14.3335 14.1912 14.3105 14.1249 14.2643C14.0587 14.2182 14.0132 14.1579 13.9884 14.0835L13.3038 12.3579H9.51531ZM5.99866 9.06046L2.96661 12.0951C2.88797 12.1626 2.79802 12.1981 2.69674 12.2015C2.59546 12.2049 2.50764 12.1694 2.43327 12.0951C2.35465 12.0165 2.31534 11.9276 2.31534 11.8284C2.31534 11.7293 2.35465 11.6404 2.43327 11.5618L5.47174 8.51689C4.95636 7.98356 4.5006 7.41091 4.10444 6.79894C3.70829 6.18697 3.42303 5.61732 3.24867 5.08997H4.07557C4.23626 5.52502 4.48434 5.99724 4.81981 6.50664C5.15528 7.01604 5.55379 7.50493 6.01532 7.97331C6.59481 7.37586 7.10977 6.69423 7.56021 5.92842C8.01063 5.16261 8.31746 4.43868 8.48071 3.75664H1.50637C1.39612 3.75664 1.30552 3.72117 1.23459 3.65024C1.16365 3.57929 1.12817 3.4887 1.12817 3.37844C1.12817 3.26818 1.16365 3.17759 1.23459 3.10666C1.30552 3.03571 1.39612 3.00024 1.50637 3.00024H5.62174V2.30154C5.62174 2.19128 5.65721 2.10069 5.72816 2.02976C5.79909 1.95881 5.88969 1.92334 5.99994 1.92334C6.1102 1.92334 6.20079 1.95881 6.27172 2.02976C6.34267 2.10069 6.37814 2.19128 6.37814 2.30154V3.00024H10.4935C10.6038 3.00024 10.6944 3.03571 10.7653 3.10666C10.8362 3.17759 10.8717 3.26818 10.8717 3.37844C10.8717 3.4887 10.8362 3.57929 10.7653 3.65024C10.6944 3.72117 10.6038 3.75664 10.4935 3.75664H9.27686C9.09224 4.55493 8.7527 5.38548 8.25826 6.24829C7.76381 7.11111 7.1918 7.87073 6.54222 8.52714L8.26146 10.2861L7.95762 11.0797L5.99866 9.06046ZM9.78837 11.6592H13.0307L11.4127 7.48739L9.78837 11.6592Z" fill="white" stroke="white" stroke-width="0.5"/>
</svg>
